<svg xmlns="http://www.w3.org/2000/svg" viewBox="0 0 64 64">
    <g transform="rotate(-30, 32, 32)">
        <mask id="logoMask">
            <rect x="0" y="0" width="100%" height="100%" fill="white"/>

            <!-- Wrench handle -->
            <line class="wrench-handle" x1="32" y1="23" x2="32" y2="64" stroke="black" stroke-width="8"/>

            <!-- Wrench head -->
            <polygon points="32,26 21.6077,20 21.6077,8 42.3923,8 42.3923,20" fill="black"/>
            <!--
            Cutout of wrench head extends past previous shape so we don't
            get artifacts when rotating.
            -->
            <polygon points="32,20, 26.8038,17, 26.8038,7 37.1962,7 37.1962,17" fill="white"/>

            <g transform="rotate(30, 32, 32) translate(2, -2)">
                <!-- Main disc -->
                <ellipse cx="32" cy="48" rx="16" ry="8" fill="black"/>
                <!-- Disc outline -->
                <ellipse cx="32" cy="48" rx="17" ry="9" fill="none" stroke="white" stroke-width="2"/>
                <!-- Disc flight ring -->
                <ellipse cx="32" cy="47" rx="14" ry="6" fill="none" stroke="white" stroke-width="0.5"/>

                <!-- Motion arc behind disc -->
                <path d="M14 48 a18 10 0 0 1 1.09 -3.42" fill="none" stroke="black" stroke-width="1"/>
                <path d="M14 48 a18 10 0 0 0 1.09 3.42" fill="none" stroke="black" stroke-width="1"/>
            </g>
        </mask>

        <polygon class="logo-fill" points="16,4.2872 48,4.2872 64,32 48,59.7128 16,59.7128 0,32" mask="url(#logoMask)"/>
    </g>
</svg>
